<?xml version="1.0" encoding="UTF-8"?>
<svg id="Capa_2" data-name="Capa 2" xmlns="http://www.w3.org/2000/svg" viewBox="0 0 216.58 158.21">
  <defs>
    <style>
      .cls-1 {
        fill: #4949bf;
      }
    </style>
  </defs>
  <g id="Capa_1-2" data-name="Capa 1">
    <path class="cls-1" d="M165.15,117.69c-.38,10.92,2.72,21.94,8.74,31.06,2.82,4.27,6.65,8.36,11.68,9.28,5.06.92,10.27-1.69,13.69-5.53,3.43-3.84,5.38-8.74,7.05-13.61,9.96-28.99,12.26-60.34,8.65-90.78-.67-5.65-1.6-11.45-4.52-16.34-2.92-4.89-8.28-8.72-13.95-8.24-5.96.51-10.53,5.38-14.06,10.21-10.16,13.89-16.87,30.29-19.36,47.32.05-.18.53-13.02-1.08-19.23-1.61-6.2-6.16-12.07-12.44-13.3-6.02-1.18-12.06,2.07-16.68,6.09-4.63,4.03-11.52,11.12-13.66,12.29,5.02-7.75,9.82-15.07,12.94-23.16,3.12-8.09,4.46-17.14,2.11-25.48-2.35-8.35-8.86-15.8-17.32-17.74-7.98-1.83-16.26,1.3-23.4,5.32-17.71,9.99-31.96,25.99-41.04,44.76-.96-6.89-1.93-13.86-4.47-20.34-2.54-6.48-6.82-12.53-12.94-15.82-6.13-3.29-14.26-3.32-19.66,1.06-4.61,3.74-6.54,9.8-8.03,15.54C.86,56.18-1.96,82.5,1.47,108.24c.98,7.34,2.8,15.21,8.5,19.94,6.12,5.07,15.48,4.95,22.38,1.01,6.9-3.95,11.52-11.07,14.05-18.61,2.53-7.53,3.19-15.55,4.54-22.08-.15-.14-.85,10.87-.22,16.27.63,5.4,2.38,10.79,5.87,14.96s8.89,6.93,14.29,6.41c5.69-.55,10.46-4.46,14.41-8.6,5.4-5.65,10.03-12.05,14.39-18.93-.92,1.52-2.4,21.02,1.3,30.73,3.7,9.71,12.1,18.06,22.38,19.55,9.23,1.33,18.56-2.96,25.43-9.26,6.87-6.3,15.63-20.36,16.36-21.94Z"/>
  </g>
</svg>