<?xml version="1.0" encoding="UTF-8"?>
<svg id="Capa_2" data-name="Capa 2" xmlns="http://www.w3.org/2000/svg" viewBox="0 0 133.49 119.89">
  <defs>
    <style>
      .cls-1 {
        fill: #00f0db;
      }
    </style>
  </defs>
  <g id="Capa_1-2" data-name="Capa 1">
    <g>
      <path class="cls-1" d="M133.49,107.43c0-5.67-4.6-10.27-10.27-10.27s-10.27,4.6-10.27,10.27,4.6,10.27,10.27,10.27,10.27-4.6,10.27-10.27Z"/>
      <path class="cls-1" d="M77.56,119.89c-31.44,0-58.66-14.92-71.09-38.97C-3.46,61.67-1.9,40.45,10.75,22.7,20.98,8.34,36.19.29,53.57,0c.31,0,.62,0,.94,0,18.8,0,37.31,9.03,48.5,23.71,11.39,14.95,13.1,31.85,4.57,45.21-8.47,13.27-25.65,20.07-41.76,16.53-12.82-2.81-19.06-9.76-22.04-15.08-4.99-8.92-5.19-20.64-.57-33.89l20.52,7.15c-2.4,6.9-2.77,12.93-.98,16.13.43.78,1.76,3.15,7.73,4.46,7.28,1.6,15.18-1.34,18.78-6.99,3.52-5.51,2.26-12.74-3.54-20.35-7.16-9.4-19.67-15.34-31.8-15.15-7.29.12-17.63,2.57-25.47,13.57-7.88,11.05-8.82,23.7-2.66,35.63,6.8,13.17,23.97,27.21,51.77,27.21h.16l.04,21.73h-.19Z"/>
    </g>
  </g>
</svg>