<?xml version="1.0" encoding="UTF-8"?>
<svg id="Capa_2" data-name="Capa 2" xmlns="http://www.w3.org/2000/svg" viewBox="0 0 132.66 102.49">
  <defs>
    <style>
      .cls-1 {
        fill: #4949bf;
      }

      .cls-2 {
        fill: #00f0db;
      }
    </style>
  </defs>
  <g id="Capa_1-2" data-name="Capa 1">
    <g>
      <path class="cls-1" d="M63.58,77.48c-3.52,0-6.21-.78-8.09-2.36-1.87-1.58-3-3.65-3.38-6.19h5.23c.16,1.34.74,2.47,1.75,3.38,1.01.91,2.5,1.36,4.48,1.36,1.41,0,2.46-.36,3.13-1.07.67-.71,1.01-1.55,1.01-2.52,0-.91-.29-1.63-.85-2.17-.57-.53-1.27-.95-2.12-1.24-.85-.3-2.01-.6-3.49-.91-1.98-.44-3.57-.9-4.76-1.4-1.2-.5-2.18-1.21-2.95-2.14-.77-.92-1.16-2.24-1.16-3.93,0-1.35.32-2.58.98-3.7.66-1.12,1.67-2.01,3.03-2.69,1.37-.68,3.13-1.02,5.3-1.02,2.23,0,4.09.37,5.59,1.12,1.49.75,2.67,1.77,3.52,3.06.85,1.29,1.39,2.75,1.61,4.38h-5.09c-.19-1.34-.75-2.46-1.68-3.36-.93-.89-2.29-1.34-4.08-1.33-1.48,0-2.55.35-3.23,1.04-.67.69-1.01,1.54-1.01,2.55,0,1.07.48,1.89,1.42,2.47.94.58,2.5,1.1,4.67,1.57,1.85.44,3.49.9,4.9,1.4,2.92,1.06,4.39,3.2,4.39,6.4,0,2.01-.76,3.73-2.3,5.16-1.54,1.43-3.81,2.15-6.83,2.16Z"/>
      <path class="cls-1" d="M12.89,44.22c-3.8,0-6.9-1.17-9.29-3.54C1.21,38.31,0,35.06,0,30.91c0-4.18,1.2-7.44,3.63-9.78,2.43-2.34,5.5-3.52,9.2-3.53,2.45,0,4.54.42,6.27,1.28,1.73.86,3.11,2.04,4.13,3.53,1.02,1.49,1.71,3.18,2.06,5.06h-5.7c-.38-1.68-1.17-2.98-2.36-3.87-1.2-.89-2.69-1.34-4.48-1.33-1.29,0-2.48.3-3.58.88-1.1.58-1.98,1.51-2.66,2.79-.67,1.27-1.01,2.93-1,4.97,0,2.95.72,5.13,2.16,6.55,1.43,1.41,3.14,2.11,5.12,2.11,2.01,0,3.58-.49,4.71-1.47,1.13-.98,1.83-2.25,2.11-3.82h5.7c-.34,1.87-1.02,3.56-2.04,5.06-1.02,1.49-2.39,2.68-4.12,3.57-1.73.88-3.81,1.33-6.26,1.33Z"/>
      <path class="cls-1" d="M36.71,44.31c-2.53,0-4.62-.73-6.28-2.2-1.66-1.47-2.49-3.32-2.49-5.55,0-1.44.35-2.8,1.04-4.05.7-1.26,1.81-2.28,3.32-3.07,1.51-.79,3.51-1.18,6.01-1.19h7.3c-.1-1.8-.62-3.28-1.58-4.44-.95-1.16-2.38-1.74-4.29-1.73-1.53,0-2.82.42-3.88,1.26-1.06.83-1.74,2.08-2.05,3.75h-5.24c.4-2.79,1.56-5.1,3.47-6.92,1.92-1.83,4.56-2.74,7.93-2.75,2,0,3.84.42,5.52,1.28,1.69.86,3.03,2.12,4.03,3.78,1,1.66,1.51,3.7,1.51,6.12l.03,15.22h-5.43s0-3.76,0-3.76c-.78,1.16-1.95,2.16-3.5,3-1.56.83-3.37,1.26-5.43,1.26ZM37.83,39.6c1.06,0,2.2-.24,3.41-.71s2.25-1.22,3.11-2.24c.86-1.02,1.28-2.38,1.28-4.08h-7.3c-1.78.02-3.04.37-3.79,1.06-.75.69-1.12,1.53-1.12,2.5,0,.97.37,1.8,1.1,2.47.73.67,1.83,1.01,3.3,1.01Z"/>
      <path class="cls-1" d="M63.97,44.11c-3.52,0-6.21-.78-8.09-2.36-1.87-1.58-3-3.65-3.38-6.19h5.23c.16,1.34.74,2.47,1.75,3.38,1.01.91,2.5,1.36,4.48,1.36,1.41,0,2.46-.36,3.13-1.07.67-.71,1.01-1.55,1.01-2.52,0-.91-.29-1.63-.85-2.17-.57-.53-1.27-.95-2.12-1.24-.85-.3-2.01-.6-3.49-.91-1.98-.44-3.57-.9-4.76-1.4-1.2-.5-2.18-1.21-2.95-2.14-.77-.92-1.16-2.24-1.16-3.93,0-1.35.32-2.58.98-3.7.66-1.12,1.67-2.01,3.03-2.69,1.37-.68,3.13-1.02,5.3-1.02,2.23,0,4.09.37,5.59,1.12,1.49.75,2.67,1.77,3.52,3.06.85,1.29,1.39,2.75,1.61,4.38h-5.09c-.19-1.34-.75-2.46-1.68-3.36-.93-.89-2.29-1.34-4.08-1.33-1.48,0-2.55.35-3.23,1.04-.67.69-1.01,1.54-1.01,2.55,0,1.07.48,1.89,1.42,2.47.94.58,2.5,1.1,4.67,1.57,1.85.44,3.49.9,4.9,1.4,2.92,1.06,4.39,3.2,4.39,6.4,0,2.01-.76,3.73-2.3,5.16-1.54,1.43-3.81,2.15-6.83,2.16Z"/>
      <path class="cls-1" d="M88.28,43.73h-3.3c-5.62.02-8.44-2.71-8.45-8.17l-.03-13.19h-3.72s0-4.56,0-4.56h3.72s-.01-6.46-.01-6.46h5.42s.01,6.44.01,6.44h16s0,4.56,0,4.56h-16s.03,12.83.03,12.83c0,1.48.29,2.5.85,3.06.57.56,1.52.85,2.88.84h2.59s0,4.66,0,4.66Z"/>
      <path class="cls-1" d="M10.85,77.75c-2.54,0-4.65-.73-6.32-2.2-1.67-1.47-2.5-3.32-2.51-5.55,0-1.44.35-2.8,1.05-4.05.7-1.26,1.82-2.28,3.34-3.07,1.52-.79,3.54-1.18,6.05-1.19h7.35c-.1-1.8-.63-3.28-1.59-4.44-.96-1.16-2.4-1.74-4.32-1.74-1.54,0-2.84.42-3.91,1.26-1.07.83-1.76,2.08-2.07,3.75H2.66c.4-2.79,1.57-5.1,3.5-6.92,1.93-1.83,4.59-2.74,7.98-2.75,2.01,0,3.86.42,5.56,1.28,1.7.86,3.05,2.12,4.06,3.78,1.01,1.66,1.52,3.7,1.52,6.12l.03,15.22h-5.47s0-3.76,0-3.76c-.78,1.16-1.96,2.16-3.53,3-1.57.83-3.39,1.26-5.46,1.26ZM11.97,73.03c1.07,0,2.21-.24,3.44-.71,1.22-.47,2.27-1.22,3.13-2.24.86-1.02,1.29-2.38,1.29-4.08h-7.35c-1.79.02-3.06.37-3.81,1.06-.75.69-1.13,1.53-1.13,2.5,0,.97.37,1.8,1.11,2.47.74.67,1.85,1.01,3.32,1.01Z"/>
      <path class="cls-1" d="M36.2,77.54c-2.07,0-4.01-.48-5.8-1.45-1.79-.97-3.23-2.44-4.32-4.42s-1.63-4.46-1.64-7.44c0-2.95.53-5.41,1.61-7.38,1.08-1.96,2.51-3.44,4.28-4.44,1.77-.99,3.71-1.49,5.82-1.5,2.61,0,4.7.6,6.27,1.8,1.57,1.21,2.66,2.72,3.26,4.54l-.03-14.94h5.42s.07,34.86.07,34.86h-5.42s-.01-6.02-.01-6.02c-.59,1.82-1.67,3.34-3.24,4.55-1.57,1.21-3.66,1.82-6.26,1.83ZM37.84,72.78c2.29,0,4.18-.79,5.67-2.37,1.49-1.57,2.23-3.65,2.23-6.22,0-2.76-.8-4.88-2.37-6.36-1.57-1.47-3.43-2.21-5.56-2.2-1.45,0-2.76.31-3.96.93-1.19.61-2.14,1.56-2.84,2.83-.7,1.27-1.06,2.88-1.05,4.83,0,1.95.36,3.56,1.07,4.83s1.66,2.21,2.86,2.82,2.51.91,3.96.91Z"/>
      <g>
        <path class="cls-2" d="M64.82,57.03s-.06.08-.09.12c-.09.14-.13.25.12-.16-.01.01-.02.02-.03.04,0,0,0,0,0,0Z"/>
        <path class="cls-2" d="M92.48,31.89c-.05.03-.1.05-.15.08,0,0,.08-.03.28-.13-.04.02-.08.03-.13.05Z"/>
        <path class="cls-2" d="M89.72,40.69s0,.02.01.03c.02.05.05.11.07.16,0,.02.02.04.03.06-.02-.04-.05-.12-.12-.25,0,0,0,0,0,0Z"/>
        <path class="cls-2" d="M110,37.63c.27-.33.27-.34.2-.26-.05.06-.1.13-.15.19-.02.02-.03.05-.05.07Z"/>
        <polygon class="cls-2" points="58.96 65.13 58.96 65.13 58.96 65.13 58.96 65.13"/>
        <polygon class="cls-2" points="58.28 60.32 58.28 60.31 58.28 60.31 58.28 60.32"/>
        <path class="cls-2" d="M132.54,14.47c-.06-.2-.14-.39-.24-.56-.44-.79-1.27-1.23-1.99-1.72-.87-.6-1.64-1.34-2.25-2.2-.92-1.32-1.28-2.79-1.37-4.38-.03-.47-.04-.95-.05-1.42-.04-1.82,0-1.49-.11-3.01-.1-1.23-1.77-1.56-2.72-.68-.78.73-1.85,1.9-2.24,2.29-.39.39-1.96,1.64-2.4,1.96-1.42,1.02-3.1,1.65-4.8,2.02-1.38.3-2.82.27-4.15.76-1.09.4-1.85,1.19-1.8,2.43.06,1.28.91,2.51,2.16,2.63,1.48.14,2.97-.08,4.4-.43.72-.18,1.44-.38,2.15-.61.32-.1.64-.2.95-.32.08-.03.97-.34.96-.33-.02.46-.28,1.01-.43,1.45-.17.53-.36,1.05-.55,1.58h-.02c-.1.28-.21.57-.32.85-.14.37-.29.74-.44,1.1-.04.1-.08.19-.12.29-.03.07-.04.11-.05.13-.05.11-.1.21-.15.32-1.38,3.11-3.03,6.1-4.86,8.97-.92,1.44-1.88,2.86-2.88,4.25-.49.68-.98,1.36-1.49,2.03-.22.29-.44.58-.65.86.06-.08-.04.05-.1.13.03-.04.07-.09.1-.13-.02.03-.07.09-.15.2.01-.02.03-.03.04-.05,0,0,0,0,0,0-.04.05-.08.11-.12.16.03-.04.05-.07.08-.1-.03.03-.05.07-.08.1-.29-.35-.59-.7-.89-1.04-3.08-3.4-7.79-6.35-12.57-5.77-2.4.29-4.65,1.29-6.31,3.1-1.44,1.58-2.46,3.57-2.9,5.66-.91,4.4.28,9.16,3.75,12.18,1.91,1.66,4.14,2.66,6.67,2.91,2.22.22,4.55-.49,6.42-1.68,2.24-1.41,3.9-3.4,5.41-5.53.04.1.08.21.12.31.56,1.6.96,3.25,1.22,4.92.25,2.07.25,4.17,0,6.24-.15,1-.36,2-.63,2.97-.15.52-.31,1.04-.49,1.55-.07.21-.15.42-.23.63-.05.13-.1.25-.15.38,0,.02-.01.03-.02.05-.85,1.91-1.9,3.7-3.14,5.37-.07.08-.13.16-.2.25-.17.21-.34.42-.52.62-.35.41-.72.81-1.1,1.2-.76.78-1.56,1.51-2.4,2.19-.08.06-.16.13-.24.19-.17.13-.34.25-.51.37-.48.34-.97.67-1.46.98-.88.55-1.8,1.05-2.74,1.49-.22.1-1.25.52-.35.17-.29.12-.59.24-.88.35-.58.22-1.18.42-1.78.59-.94.28-1.89.49-2.85.66.03-1.1.04-2.2,0-3.29-.12-4.72-.97-9.49-3.43-13.59-2.2-3.66-5.57-6.68-9.71-7.92-4.56-1.37-9.67-.35-13.17,2.92-1.77,1.66-3,3.93-3.36,6.33-.07.51-.12,1.01-.14,1.51.17.16.36.31.59.45.94.58,2.5,1.1,4.67,1.57.07.02.13.03.19.05,0,0,0,0,0,.01-.03-.15-.06-.31-.08-.46-.07-.68-.08-1.36-.01-2.05.08-.44.18-.88.32-1.3.03-.09.06-.18.1-.27.09-.18.17-.36.27-.53.12-.21.25-.42.39-.62,0,0,.01-.02.02-.02.03-.04.06-.08.09-.12.03-.04.06-.08.09-.13-.02.03-.04.06-.06.09.29-.34.61-.66.95-.96.05-.05.11-.09.16-.14.18-.12.35-.25.53-.36.38-.24.77-.44,1.18-.63.08-.03.16-.06.24-.09.21-.08.43-.14.64-.21.37-.11.75-.19,1.13-.25.77-.07,1.54-.06,2.3.01.54.09,1.07.21,1.58.37.29.09.57.19.85.3.14.06.28.13.42.2.59.3,1.16.64,1.7,1.02.08.05.15.11.22.16,0,0,.02.01.02.02.27.22.54.46.79.7.47.45.91.92,1.33,1.42.05.07.11.13.16.2.03.04.05.07.08.11.2.27.39.55.57.84.36.55.68,1.13.98,1.71.14.28.28.57.41.86.06.14.11.28.17.42.58,1.54.95,3.16,1.19,4.79.29,2.36.35,4.76.26,7.15-.72-.03-1.44-.09-2.16-.18-1.48-.22-2.94-.56-4.37-1.01-.73-.23-1.45-.5-2.16-.79-.06-.02-.11-.05-.17-.07-.18-.08-.36-.16-.54-.25-.38-.18-.75-.37-1.12-.56-.72-.38-1.42-.79-2.1-1.24-.31-.2-.62-.41-.92-.63-.16-.12-.32-.24-.48-.35-.02-.01-.03-.02-.04-.03-.04-.04-.09-.07-.13-.11-.62-.5-1.21-1.04-1.77-1.61-.11-.11-.22-.23-.32-.34-.46-.33-.99-.6-1.58-.81-.85-.3-2.01-.6-3.49-.91-.88-.19-1.68-.39-2.41-.6.22.67.48,1.33.8,1.98,1.03,2.14,2.64,4.05,4.42,5.6,1.78,1.55,3.75,2.89,5.85,3.95,3.81,1.92,7.99,3.05,12.24,3.3,0,.03,0,.06-.01.09-.47,3.35-1.22,6.66-2.27,9.87-.26.79-.54,1.57-.83,2.35-.14.36-.28.72-.43,1.08,0,.02-.02.04-.02.06,0,.02-.02.05-.03.07-.09.2-.18.41-.27.61-.68,1.51-1.45,2.99-2.32,4.41-.73,1.2-.3,2.99.96,3.66,1.3.69,2.89.32,3.66-.96,2.66-4.39,4.5-9.3,5.69-14.28.56-2.34.98-4.72,1.27-7.12,7.47-.94,14.46-4.75,19.19-10.69,2.74-3.44,4.83-7.41,5.77-11.73.98-4.46.87-9.12-.29-13.53-.56-2.13-1.37-4.2-2.4-6.14.02-.02.03-.04.05-.07-.02.02-.03.04-.05.06.03-.04.07-.09.1-.13,0-.01.02-.03.03-.04.04-.05.09-.11.12-.15.02-.03.05-.06.07-.09.82-1.04,1.62-2.09,2.41-3.15,1.38-1.86,2.71-3.75,3.96-5.7,2.1-3.29,4.07-6.82,5.48-10.49.35-.9.69-1.8,1.02-2.7.22-.6.81-2.05,1.01-2.66-.06.18.31.62.4.77.74,1.23,1.55,2.47,2.74,3.32,1.04.74,2.7,1.53,3.95.9.46-.23.89-.59,1.13-1.05.33-.62.37-1.38.17-2.05ZM90.6,42.22c-.23-.28-.02-.05.09.1-.03-.03-.06-.07-.09-.1ZM101.5,40.59c-.13.18-.62.79-.04.07-.11.13-.21.27-.32.4-.24.29-.48.58-.74.86-.47.52-.97.99-1.5,1.44-.06.04-.11.09-.16.12-.15.11-.3.21-.46.3-.31.2-.64.37-.97.53-.01,0-.02,0-.03.01-.17.06-.33.12-.51.17-.26.08-.53.14-.8.19-.44.04-.88.04-1.32,0-.34-.06-.67-.14-1-.25-.24-.08-.95-.43-.13-.02-.21-.1-.42-.19-.63-.3-.38-.2-.89-.44-1.2-.76.13.11.47.37.16.11-.08-.07-.16-.14-.24-.21-.19-.17-.38-.35-.55-.53-.13-.13-.25-.27-.37-.41-.05-.08-.14-.18-.19-.24-.26-.37-.48-.76-.68-1.16.05.12-.05-.08-.1-.22-.03-.06-.06-.13-.09-.19.03.06.05.11.08.16-.07-.2-.14-.4-.2-.61-.1-.36-.19-.73-.25-1.09-.07-.72-.07-1.44,0-2.16.12-.71.32-1.39.56-2.07.03-.06.05-.11.08-.17.09-.18.18-.35.28-.52.11-.19.22-.37.34-.55.03-.05.07-.1.11-.15.24-.28.49-.55.77-.8.05-.04.1-.08.14-.12.13-.09.25-.18.39-.26.13-.08.26-.15.39-.22,0,0,.06-.04.15-.08,0,0,.02,0,.03-.01.09-.04.18-.08.27-.12-.07.03-.12.06-.17.09,0,0,.01,0,.02,0,.36-.13.74-.22,1.12-.3.49-.04.98-.04,1.47,0,.67.12,1.32.29,1.96.53.05.02.1.04.15.06.15.07.31.14.46.22.39.2.77.41,1.14.64.33.2.66.42.97.65.04.03.07.05.11.08.17.14.33.27.49.41.63.55,1.22,1.14,1.78,1.76.25.28.5.57.73.86.1.13.37.49.23.29.07.1.14.19.21.29.06.08.11.16.17.24-.69,1.02-1.38,2.04-2.11,3.04ZM106.02,41.79c.03.06.05.11.08.17,0,0,0,.02.01.03.01.03.02.06.04.09-.13-.28-.15-.33-.13-.29ZM74.18,54.91s.08.03.13.05c-.07-.03-.13-.05-.13-.05Z"/>
      </g>
      <path class="cls-1" d="M112.92,28.46c0-.16,0-.32,0-.47,0-.04,0-.09,0-.13,0-.11,0-.23-.02-.34,0-.05,0-.09,0-.14,0-.11-.02-.22-.02-.32,0-.04,0-.08-.01-.13-.01-.11-.02-.22-.04-.33,0-.04,0-.07-.01-.11-.02-.11-.03-.23-.05-.34,0-.03,0-.06-.01-.09-.02-.12-.04-.24-.06-.36,0-.02,0-.04-.01-.06-.03-.13-.05-.25-.08-.38,0-.01,0-.02,0-.03-.03-.14-.07-.27-.1-.4h0c-.25-.91-.6-1.75-1.06-2.5-1.01-1.66-2.36-2.92-4.06-3.78-1.7-.86-3.55-1.29-5.56-1.28-3.39,0-6.05.92-7.98,2.75-1.93,1.83-3.09,4.14-3.5,6.93h.14,0s5.13-.01,5.13-.01c.02-.12.05-.23.07-.35,0,0,0-.01,0-.02.03-.11.05-.22.08-.33.36-1.32.99-2.34,1.91-3.06,1.07-.83,2.37-1.25,3.91-1.26,1.92,0,3.35.58,4.32,1.74.96,1.16,1.49,2.64,1.59,4.43h-6.41c1.81,1.07,3.45,2.45,4.78,3.92.12.14.25.28.37.42h1.01s.26,0,.26,0c0,1.7-.43,3.06-1.29,4.08-.31.36-.64.69-.99.99-.64.53-1.35.95-2.14,1.26,0,0,0,0,0,0-.16.06-.32.12-.47.17-1.04.36-2.03.54-2.95.54-1.48,0-2.59-.33-3.32-1.01-.74-.67-1.11-1.5-1.11-2.47,0-.97.37-1.81,1.13-2.5.44-.4,1.05-.69,1.84-.86,0,0,0,0,0,0-.16-.09-.33-.18-.49-.26-.15-.08-.31-.15-.46-.22-.05-.02-.1-.04-.15-.06-.64-.24-1.29-.41-1.96-.53-.49-.04-.98-.04-1.47,0-.38.07-.75.17-1.12.3,0,0-.01,0-.02,0,.05-.02.1-.05.17-.09-.09.04-.18.08-.27.12,0,0-.02,0-.03.01-.09.04-.16.08-.15.08-.13.07-.26.14-.39.22-.13.08-.26.17-.39.26-.05.04-.1.08-.14.12-.28.25-.53.52-.77.8-.04.05-.07.1-.11.15-.12.18-.23.36-.34.55-.05.09-.4,1.25-.4,2.33,0,2.23.84,4.08,2.51,5.55,1.46,1.29,3.26,2.01,5.39,2.17h0s.02,0,.03,0c.14,0,.28.02.42.02.15,0,.31,0,.47,0,.26,0,.51,0,.77-.02.38-.02.75-.06,1.1-.1.6-.08,1.17-.21,1.72-.37.66-.2,1.28-.45,1.87-.76,1.57-.84,2.74-1.83,3.53-3v3.77s5.47-.01,5.47-.01l-.03-15.22Z"/>
    </g>
  </g>
</svg>